<?xml version="1.0" encoding="UTF-8"?>
<svg id="Capa_1" data-name="Capa 1" xmlns="http://www.w3.org/2000/svg" viewBox="0 0 461 171">
  <defs>
    <style>
      .cls-1 {
        fill: #000;
      }

      .cls-1, .cls-2 {
        stroke-width: 0px;
      }

      .cls-2 {
        fill: none;
      }
    </style>
  </defs>
  <g>
    <path class="cls-2" d="M79.43,128.2c2.15.34,4.44.59,6.91.73h.06s.08,0,.08,0c4.02-.23,7.65-.73,10.79-1.47,1.14-.27,2.19-.73,3.14-1.32-1.22-.82-2.4-1.52-3.52-2.04-2.59-.65-6.79-1.02-10.57,1.65,0,0,2.69-2.94,7.74-2.72-7.47-2.09-12.35,2.29-14.64,5.17Z"/>
    <path class="cls-2" d="M151.68,85.98c-.04.29-.07.59-.13.88-.04.28-.09.55-.13.81,0,.03-.01.06-.01.09-.05.26-.1.51-.15.75,0,.01,0,.04,0,.05-.11.52-.24,1.02-.38,1.5-.07.24-.15.49-.22.72-.07.21-.13.41-.2.61-.09.26-.18.51-.28.75-.09.22-.18.43-.27.63-.09.21-.18.41-.27.61-.1.2-.19.39-.29.58-.1.18-.2.37-.29.55-.1.18-.21.35-.31.53-.1.17-.21.34-.31.5-.1.17-.21.32-.32.48-.11.15-.21.31-.32.46-.58.79-1.18,1.46-1.77,2.03-1.61,1.57-3.13,2.39-3.93,2.75-.14.07-.26.11-.35.15-.14.06-.21.08-.21.08.04-.22.07-.44.13-.66.03-.15.07-.31.11-.45.04-.18.1-.35.15-.52.1-.33.22-.64.35-.93.06-.15.13-.29.18-.42.14-.3.29-.57.43-.82.07-.11.13-.21.19-.32.43-.7.84-1.15,1.02-1.33.03-.03.05-.05.07-.07.01-.01.02-.02.02-.02h0l-1.81.31c.21-.27.43-.58.65-.91.14-.21.28-.44.41-.66.41-.67.77-1.34,1-1.81.04-.08.08-.15.11-.22.01-.02.02-.04.03-.06.01-.03.03-.05.04-.07h0s.01-.04.02-.06c.03-.04.04-.08.06-.12.01-.03.03-.06.04-.08,0,0,0-.01,0-.02-.01,0-.04.02-.05.03-.22.14-.46.25-.69.33-.13.04-.26.08-.38.11-.62.15-1.13.15-1.13.15.08-.07.16-.15.24-.23.27-.26.52-.55.74-.85.55-.71.99-1.54,1.36-2.36.12-.27.24-.54.34-.8h0c.55-1.4.85-2.62.94-3.01,0-.02,0-.04.01-.07,0-.02,0-.04,0-.04h0c-.04.06-.07.12-.11.17-.04.06-.07.12-.11.18-.08.12-.16.23-.24.34-.08.11-.16.22-.25.33-.17.21-.34.42-.52.61-.29.32-.57.6-.88.86-.11.1-.23.2-.34.29-.05.04-.1.09-.15.13-.36.29-.73.55-1.1.78-.18.12-.35.22-.53.32.02-3.51-.16-6.52-.38-8.71.37-.27.75-.53,1.14-.77.39-.24.78-.46,1.18-.66.27-.13.52-.25.79-.36.2-.08.4-.15.6-.22.2-.07.39-.13.58-.18.26-.07.52-.13.77-.18.19-.04.38-.06.57-.07.18-.02.36-.03.54-.03.38,0,.74.04,1.08.13.06,0,.12.02.17.04,0,0,0,0,.01,0,.1.02.18.05.28.09.1.04.19.07.29.13.06.02.11.05.17.09.18.1.35.22.52.35.1.09.2.18.29.27.05.05.1.1.15.16.23.27.43.6.6.98.07.15.13.31.18.48.41,1.18.53,2.79.27,4.91Z"/>
    <path class="cls-2" d="M26.77,85.52s0,.02,0,.04h0s0,.05.01.07c.01.09.04.21.09.36,0,.02.01.04.01.06.01.07.04.15.06.24.02.08.05.17.07.26.15.56.39,1.3.71,2.09h0c.07.21.16.41.25.61.11.26.23.52.36.77.07.15.15.31.24.46.12.2.23.41.35.6.15.25.32.5.5.73.22.31.47.6.74.85.07.08.15.15.24.23,0,0-.04,0-.13,0-.05,0-.13,0-.21-.01-.21-.01-.49-.06-.8-.13-.13-.03-.26-.07-.38-.11-.24-.08-.47-.19-.69-.33-.01,0-.04-.02-.05-.03,0,0,0,.01,0,.02.01.02.03.05.04.08,0,.02.02.04.03.07.02.04.04.1.07.15.16.33.44.86.77,1.45.18.32.38.66.59.99.28.45.57.88.86,1.25l-1.81-.31h-.01s.2.18.5.55h0c.06.08.13.16.18.25.13.18.27.38.43.61.59.94,1.25,2.32,1.53,4.11,0,0-1.09-.35-2.56-1.38-.11-.07-.21-.15-.32-.23-.32-.24-.67-.51-1.02-.82-.12-.1-.24-.21-.35-.32-.99-.93-2.03-2.14-2.96-3.7-.11-.17-.21-.35-.31-.53-.13-.24-.27-.49-.39-.74-.11-.21-.21-.43-.31-.66-.15-.32-.29-.64-.42-.98-.1-.24-.19-.49-.28-.75-.07-.2-.13-.41-.2-.61-.07-.22-.14-.45-.21-.69-.07-.26-.15-.52-.21-.79-.07-.28-.13-.56-.2-.85-.04-.23-.09-.46-.14-.7,0-.03,0-.06-.01-.09-.04-.27-.09-.53-.13-.81-.05-.29-.09-.58-.13-.88-.04-.38-.08-.74-.1-1.08,0,0,0,0,0-.01-.04-.55-.04-1.05-.02-1.52.02-.52.07-.99.16-1.42,0-.04.01-.08.02-.12.06-.27.13-.52.21-.76.11-.35.25-.66.41-.93.04-.06.07-.12.11-.17.16-.26.35-.48.55-.67.1-.1.21-.18.32-.27.06-.04.11-.08.17-.11.05-.04.11-.07.17-.1.15-.09.32-.16.48-.22.07-.03.14-.05.21-.07.13-.04.25-.07.38-.1.1-.02.19-.04.29-.05.09-.01.18-.02.27-.03.05,0,.1,0,.15,0,2.03-.09,4.52,1.02,6.62,2.65-.09.96-.18,2.07-.24,3.31-.02.41-.04.83-.05,1.27,0,.17-.01.35-.02.53s-.01.36-.01.55c0,.18,0,.37-.01.55,0,.18,0,.38,0,.57,0,.38,0,.77,0,1.16v.74c-.09-.05-.18-.1-.27-.15-.09-.05-.18-.11-.27-.17h0c-.18-.12-.38-.24-.57-.37h0c-.19-.14-.38-.28-.57-.43h0c-.18-.15-.37-.29-.55-.46-.79-.69-1.55-1.53-2.22-2.59Z"/>
    <path class="cls-1" d="M92.18,108.95c3.6.56,3.67-6.01.56-4.2-3.11,1.81-4.39-.96-4.39-.96,0,0,.24,4.6,3.83,5.16Z"/>
    <path class="cls-1" d="M80.7,108.95c3.6-.56,3.83-5.16,3.83-5.16,0,0-1.28,2.77-4.39.96-3.11-1.81-3.04,4.75.56,4.2Z"/>
    <path class="cls-1" d="M65.92,113.88v3.25c0,5.61,3.82,10.51,9.28,11.8,2.86.68,6.51,1.25,11.05,1.51v.02c.06,0,.1,0,.16-.01.06,0,.1,0,.16.01v-.02c4.54-.26,8.19-.83,11.05-1.51,5.46-1.3,9.28-6.19,9.28-11.8v-3.25c-7.27,3-14.33,3.97-20.49,3.93-6.16.03-13.21-.94-20.49-3.93ZM94.06,123.03c-5.06-.22-7.74,2.72-7.74,2.72,3.77-2.67,7.97-2.29,10.57-1.65,1.12.52,2.31,1.22,3.52,2.04-.95.59-2,1.05-3.14,1.32-3.14.75-6.77,1.24-10.79,1.47h-.08s-.06,0-.06,0c-2.46-.14-4.76-.4-6.91-.73,2.29-2.88,7.17-7.26,14.64-5.17Z"/>
    <path class="cls-1" d="M141.16,70.32l-10.45,10.22c-2.68-14.96-19.75-18.01-19.75-18.01l.88-2.51c-18.73,1.25-25.4,14.46-25.4,14.46,0,0-6.66-13.2-25.39-14.46l.88,2.51s-17.07,3.05-19.75,18.01l-10.45-10.22-.47-.35c-.92-10.57,1.12-20.95,1.12-20.95l5.92,4.53c-12.25-20.37-1.69-44.88-1.69-44.88,0,0,3.77,10.37,41.29,12.45,37.52,2.07,45.44,22.25,45.44,22.25v-4.91c13.95,10.87,17.22,24.04,17.82,31.86Z"/>
    <path class="cls-1" d="M151.41,81.07c.4,1.18.52,2.79.27,4.91-.04.3-.07.59-.12.88.05-.29.09-.58.13-.88.26-2.11.13-3.73-.27-4.91ZM147.79,96.49c-.58.78-1.18,1.46-1.77,2.03.59-.57,1.19-1.24,1.77-2.03ZM146.11,85.51c-.04.06-.07.12-.11.18.04-.05.07-.11.11-.16h0ZM144.16,95.97h0s-1.82.31-1.82.31l1.81-.31ZM142.64,80.04c.39-.24.78-.46,1.18-.66-.4.19-.79.41-1.18.66ZM31.25,89.68h0c-.09-.06-.18-.1-.27-.15.09.05.18.1.27.15ZM28.72,95.97l1.81.31-1.82-.32h0ZM21.1,84.9c.01.34.05.7.1,1.08.04.29.07.59.13.88-.04-.29-.08-.57-.12-.88-.04-.38-.07-.73-.1-1.08ZM21.08,83.37c.02-.52.08-.99.16-1.42-.09.43-.14.9-.16,1.42ZM21.08,83.37c-.02.46-.02.97.02,1.52-.04-.55-.04-1.05-.02-1.52Z"/>
    <path class="cls-1" d="M153.22,73.21c-3.26-2.02-6.66-1.66-9.43-.64,0,0-.01,0-.02,0-.91.34-1.75.74-2.5,1.16l-8.53,9.41-1.72.76c.26,15.33-17.18,19.78-17.18,19.78,0,0,5.09,9.62,1.7,18.66-3.4,9.05-17.1,13.39-29.1,12.45-12,.94-25.7-3.4-29.1-12.45-3.4-9.05,1.7-18.66,1.7-18.66,0,0-17.44-4.46-17.19-19.78l-1.72-.76-8.29-9.14-.24-.27c-.77-.43-1.67-.85-2.62-1.2-2.76-.99-6.12-1.33-9.34.67-7.01,4.35-3.18,30.95,14.21,35.29,1.92,6.43,5.15,12.67,10.47,17.37l1.5-4.46s.76,13.76,13.96,18.1c13.2,4.34,16.21,12.64,16.21,12.64v-4.9s9.62,6.03,10.57,15.08c.94-9.06,10.55-15.08,10.55-15.08v4.9s3.02-8.3,16.21-12.64c13.2-4.33,13.96-18.1,13.96-18.1l1.51,4.46c5.33-4.72,8.56-10.99,10.48-17.43,17.16-4.54,20.92-30.9,13.95-35.23ZM31.37,84.31c-.01.41-.04.83-.05,1.27,0,.17-.01.35-.02.53s-.01.36-.01.55c0,.18,0,.37-.01.55,0,.18,0,.38,0,.57,0,.38,0,.77,0,1.16,0,.24,0,.49,0,.74h0c-.09-.05-.18-.1-.27-.15-.09-.05-.18-.11-.27-.17h0c-.18-.12-.38-.24-.57-.37h0c-.19-.13-.38-.27-.57-.43h0c-.18-.15-.37-.29-.55-.46-.79-.69-1.55-1.53-2.22-2.59,0,0,0,.02,0,.04h0s0,.05.01.07c.01.05.03.12.05.2.01.05.02.1.04.16,0,.02.01.04.01.06.01.07.04.15.06.24.02.08.05.17.07.26.16.56.4,1.3.71,2.09h0c.08.21.16.41.25.61.12.26.24.52.36.77.07.15.15.31.24.46.12.2.23.41.35.6.16.25.32.49.5.73.1.13.21.27.32.4.14.16.28.32.43.46.07.08.15.15.24.23,0,0-.04,0-.13,0-.05,0-.13,0-.21-.01-.21-.01-.49-.06-.8-.13-.13-.03-.26-.07-.38-.11s-.26-.1-.38-.15c-.1-.05-.21-.11-.31-.18-.01,0-.04-.02-.05-.03,0,0,0,.01,0,.02.01.02.03.05.04.08,0,.02.02.04.03.07.02.04.04.1.07.15.16.33.44.86.77,1.45.13.21.26.43.39.66.07.11.13.22.2.33.28.45.57.88.86,1.25l-1.81-.31s.23.23.49.55h0c.06.08.13.16.18.25.14.18.28.38.43.61.59.94,1.25,2.32,1.53,4.11,0,0-1.09-.35-2.56-1.38-.1-.07-.21-.14-.32-.23-.32-.24-.67-.51-1.02-.82-.12-.1-.24-.2-.35-.32-.99-.93-2.03-2.14-2.96-3.7-.11-.17-.21-.35-.31-.53-.13-.24-.27-.49-.39-.74-.11-.21-.21-.43-.31-.66-.15-.32-.29-.64-.42-.98-.1-.24-.19-.49-.28-.75-.07-.2-.14-.41-.2-.61-.07-.22-.15-.45-.21-.69-.07-.26-.15-.52-.21-.79-.07-.28-.13-.56-.2-.85-.05-.23-.1-.46-.14-.7,0-.03,0-.06-.01-.09-.05-.27-.1-.54-.13-.81-.05-.29-.09-.58-.13-.88-.04-.38-.08-.74-.1-1.08,0,0,0,0,0-.01-.04-.55-.04-1.05-.02-1.52.02-.52.07-.99.16-1.42,0-.04.01-.08.02-.12.05-.27.12-.52.21-.76.11-.35.25-.66.41-.93.04-.06.07-.12.11-.17.16-.26.35-.48.55-.67.1-.1.21-.18.32-.27.06-.04.11-.08.17-.11.06-.04.11-.07.17-.1.15-.09.32-.16.48-.22.07-.03.13-.05.21-.07.13-.04.25-.07.38-.1.1-.02.2-.04.29-.05.1-.01.18-.02.27-.03.05,0,.1,0,.15,0,2.03-.09,4.52,1.02,6.62,2.65-.09.96-.18,2.07-.24,3.31ZM151.68,85.98c-.04.29-.07.59-.13.88-.04.27-.08.55-.13.81,0,.03-.01.06-.01.09-.04.26-.1.51-.15.75,0,.01,0,.04,0,.05-.11.52-.24,1.02-.38,1.5-.07.24-.14.49-.22.72-.06.21-.13.41-.2.61-.09.26-.18.51-.28.75-.09.22-.18.43-.27.63-.08.21-.18.41-.27.61-.09.2-.18.39-.29.58-.1.18-.2.37-.29.55-.1.18-.21.35-.31.53-.1.17-.2.34-.31.5-.1.16-.21.32-.32.48-.11.15-.21.31-.32.46-.58.79-1.18,1.46-1.77,2.03-1.61,1.57-3.13,2.39-3.93,2.75-.14.07-.26.11-.35.15-.14.06-.21.08-.21.08.04-.23.08-.44.13-.66.03-.15.07-.31.11-.45.04-.18.1-.35.15-.52.1-.33.21-.64.35-.93.05-.15.12-.29.18-.42.14-.3.29-.57.43-.82.07-.11.13-.22.19-.32.43-.7.84-1.15,1.02-1.33.02-.03.05-.06.07-.07t.01-.02l-1.81.31c.21-.27.43-.58.65-.91.07-.11.14-.22.21-.33.07-.11.14-.22.21-.33.41-.67.77-1.34,1-1.81.04-.08.08-.15.11-.22.01-.02.02-.04.03-.06.01-.03.03-.05.04-.07h0s.01-.04.02-.06c.02-.04.04-.09.06-.12.01-.03.03-.06.04-.08,0,0,0-.01,0-.02-.01,0-.04.02-.05.03-.1.07-.21.13-.31.18-.13.06-.26.11-.38.15-.13.04-.26.08-.38.11-.62.15-1.13.15-1.13.15.08-.07.16-.15.24-.23.15-.14.29-.29.43-.46.11-.13.21-.27.32-.4.54-.72.99-1.55,1.36-2.36.12-.27.24-.54.34-.8h0c.47-1.22.76-2.29.89-2.81.02-.08.04-.15.05-.2,0-.02,0-.04.01-.07v-.04c-.04.05-.07.11-.11.16-.04.06-.07.12-.11.18-.08.12-.16.23-.24.34-.08.11-.16.22-.25.33-.17.21-.34.42-.52.61-.29.32-.57.6-.88.86-.11.1-.23.2-.34.29-.05.04-.1.09-.15.13-.36.29-.73.55-1.1.78-.17.12-.35.23-.53.33h0c.02-3.52-.16-6.53-.38-8.72.37-.27.75-.53,1.14-.77.39-.24.78-.46,1.18-.66.27-.13.52-.25.79-.36.2-.08.4-.15.6-.22.2-.07.39-.13.58-.18.26-.07.52-.13.77-.18.19-.04.38-.06.57-.07.18-.02.36-.03.54-.03.38,0,.74.04,1.08.13.06,0,.11.02.17.04,0,0,0,0,.01,0,.1.02.19.05.28.09.1.04.19.07.29.13.06.02.11.05.17.09.18.1.35.22.52.35.1.08.19.17.29.27.05.04.1.1.15.16.23.27.43.6.6.98.07.15.13.31.18.48.41,1.18.53,2.79.27,4.91Z"/>
    <path class="cls-1" d="M141.16,70.32l-10.45,10.22-9.9,3.54c-1.05-7.4-7.36-13.11-15.05-13.11-7.27,0-13.33,5.1-14.85,11.91-2.05-.71-5.26-1.33-8.97-.15-1.58-6.73-7.6-11.76-14.82-11.76-7.69,0-13.99,5.71-15.05,13.11l-9.9-3.54-10.45-10.22-.47-.35h0s-1.72-.91-2.25,2.58c.95.35,1.84.77,2.62,1.2l.24.27,8.29,9.14,1.72.76,10.17,3.92c.81,7.66,7.22,13.65,15.1,13.65,8.43,0,15.26-6.83,15.26-15.25,0-.12-.04-.23-.04-.35,1.98-.51,4.8-.74,8.17.27,0,.03,0,.05,0,.08,0,8.42,6.83,15.25,15.25,15.25,7.88,0,14.29-5.99,15.11-13.65l10.16-3.92,1.72-.76,8.53-9.41c.74-.42,1.58-.83,2.5-1.16,0,0,.01,0,.02,0-.61-3.99-2.64-2.25-2.64-2.25ZM68.69,73.34c-7.33,0-13.26,5.93-13.26,13.26,0,6.06,4.09,11.12,9.65,12.7-6.45-.89-11.45-6.37-11.45-13.07,0-7.33,5.95-13.26,13.26-13.26,1.27,0,2.46.23,3.61.56-.6-.08-1.19-.18-1.81-.18ZM107.72,73.34c-7.32,0-13.26,5.93-13.26,13.26,0,6.06,4.09,11.12,9.65,12.7-6.45-.89-11.44-6.37-11.44-13.07,0-7.33,5.95-13.26,13.26-13.26,1.26,0,2.46.23,3.61.56-.6-.08-1.19-.18-1.82-.18Z"/>
  </g>
  <g>
    <path class="cls-1" d="M172.9,106.58c0-2.87,1.01-5.3,3.03-7.28,2.02-1.98,4.43-2.97,7.22-2.97,1.09,0,2.02.12,2.8.35,1.55.39,2.87.58,3.96.58,2.56,0,4.64-.77,6.23-2.33,1.59-1.55,2.39-3.69,2.39-6.41v-39.01c0-3.18,1.14-5.94,3.44-8.27,2.29-2.33,5.07-3.49,8.33-3.49s6.04,1.16,8.33,3.49c2.29,2.33,3.44,5.09,3.44,8.27v39.36c0,9.55-2.64,16.79-7.92,21.72-5.28,4.93-12.66,7.4-22.13,7.4-4.12,0-7.96-.51-11.53-1.51-2.17-.62-3.98-1.84-5.42-3.67-1.44-1.82-2.15-3.9-2.15-6.23Z"/>
    <path class="cls-1" d="M260.95,58.95c8-.15,14.91,2.37,20.73,7.57,5.82,5.2,8.66,11.26,8.5,18.17,0,3.73-.99,6.37-2.97,7.92-1.98,1.55-5.14,2.33-9.49,2.33h-25.74c.7,2.1,2.13,3.81,4.31,5.12,2.17,1.32,4.85,1.98,8.04,1.98,2.64,0,5.4-.54,8.27-1.63,1.01-.39,1.98-.58,2.91-.58,2.17,0,4.04.78,5.59,2.33,1.55,1.55,2.33,3.42,2.33,5.59,0,1.55-.49,2.99-1.45,4.31-.97,1.32-2.2,2.33-3.67,3.03-5.13,1.94-10.68,2.91-16.65,2.91-9.08,0-16.58-2.7-22.48-8.09-5.9-5.4-8.85-12.56-8.85-21.49,0-8.31,2.89-15.3,8.68-20.96,5.78-5.67,13.1-8.5,21.95-8.5ZM251.75,81.66h18.52c-1.09-4.5-4.19-6.75-9.32-6.75s-8.03,2.25-9.2,6.75Z"/>
    <path class="cls-1" d="M299.55,51.67c-2.29-2.29-3.44-5.07-3.44-8.33s1.14-6.04,3.44-8.33c2.29-2.29,5.07-3.44,8.33-3.44s6.04,1.15,8.33,3.44c2.29,2.29,3.44,5.07,3.44,8.33s-1.15,6.04-3.44,8.33-5.07,3.44-8.33,3.44-6.04-1.14-8.33-3.44Z"/>
    <path class="cls-1" d="M297.4,107.28v-37.62c0-2.87,1.03-5.34,3.09-7.4,2.06-2.06,4.52-3.09,7.39-3.09s5.34,1.03,7.4,3.09c2.06,2.06,3.09,4.52,3.09,7.4v37.62c0,2.87-1.03,5.34-3.09,7.4-2.06,2.06-4.52,3.09-7.4,3.09s-5.34-1.03-7.39-3.09c-2.06-2.06-3.09-4.52-3.09-7.4Z"/>
    <path class="cls-1" d="M357.72,58.95c5.82,0,10.95,1.16,15.37,3.49,3.42,1.86,5.13,4.62,5.13,8.27,0,2.56-.91,4.76-2.74,6.58s-4.02,2.74-6.58,2.74c-1.79,0-3.3-.39-4.54-1.16-1.63-.93-3.53-1.4-5.71-1.4-3.18,0-5.82.97-7.92,2.91-2.1,1.94-3.14,4.62-3.14,8.04s1.05,6.11,3.14,8.09c2.1,1.98,4.73,2.97,7.92,2.97,2.1,0,3.96-.47,5.59-1.4,1.55-.85,3.07-1.28,4.54-1.28,2.56,0,4.75.91,6.58,2.74,1.82,1.82,2.74,4.06,2.74,6.7,0,3.65-1.67,6.41-5.01,8.27-4.43,2.33-9.55,3.49-15.37,3.49-9.01,0-16.52-2.74-22.54-8.21-6.02-5.47-9.03-12.6-9.03-21.37s3.01-15.78,9.03-21.25c6.02-5.47,13.53-8.21,22.54-8.21Z"/>
    <path class="cls-1" d="M391.27,121.02l.93-.12c4.04-.31,6.33-1.05,6.87-2.21l.47-1.16-17.59-44.14c-.62-1.63-.93-2.95-.93-3.96,0-2.8.99-5.2,2.97-7.22,1.98-2.02,4.41-3.03,7.28-3.03,2.17,0,4.11.56,5.82,1.69,1.71,1.13,2.91,2.7,3.61,4.72l9.67,28.53,9.43-28.53c.7-2.02,1.9-3.59,3.61-4.72,1.71-1.12,3.65-1.69,5.82-1.69,2.95,0,5.42.99,7.4,2.97,1.98,1.98,2.97,4.41,2.97,7.28,0,1.01-.31,2.33-.93,3.96l-19.92,50.19c-2.17,5.43-5.3,9.43-9.38,11.99-4.08,2.56-8.64,3.84-13.68,3.84h-1.28c-3.18,0-5.75-.93-7.69-2.8-1.94-1.86-2.91-4.19-2.91-6.99,0-2.25.72-4.19,2.15-5.82,1.44-1.63,3.2-2.56,5.3-2.8Z"/>
  </g>
</svg>